<?xml version="1.0" encoding="utf-8"?>
<!-- Generator: Adobe Illustrator 18.0.0, SVG Export Plug-In . SVG Version: 6.00 Build 0)  -->
<!DOCTYPE svg PUBLIC "-//W3C//DTD SVG 1.1//EN" "http://www.w3.org/Graphics/SVG/1.1/DTD/svg11.dtd">
<svg version="1.1" xmlns="http://www.w3.org/2000/svg" xmlns:xlink="http://www.w3.org/1999/xlink" x="0px" y="0px"
	 viewBox="0 0 195.6 195.6" enable-background="new 0 0 195.6 195.6" xml:space="preserve">
<g id="sfondo">
</g>
<g id="QR">
</g>
<g id="Scritte">
</g>
<g id="design">
	
		<path fill="none" stroke="#AFA192" stroke-width="1.1339" stroke-linecap="round" stroke-linejoin="round" stroke-miterlimit="10" d="
		M119.8,178.4c-2.2,0-3.9-1.8-3.9-3.9"/>
	
		<path fill="none" stroke="#AFA192" stroke-width="1.1339" stroke-linecap="round" stroke-linejoin="round" stroke-miterlimit="10" d="
		M123.7,174.4c0,2.2-1.8,3.9-3.9,3.9"/>
	
		<path fill="none" stroke="#AFA192" stroke-width="1.1339" stroke-linecap="round" stroke-linejoin="round" stroke-miterlimit="10" d="
		M119.8,170.5c2.2,0,3.9,1.8,3.9,3.9"/>
	
		<path fill="none" stroke="#AFA192" stroke-width="1.1339" stroke-linecap="round" stroke-linejoin="round" stroke-miterlimit="10" d="
		M115.9,174.4c0-2.2,1.8-3.9,3.9-3.9"/>
	
		<line fill="none" stroke="#AFA192" stroke-width="1.1339" stroke-linecap="round" stroke-linejoin="round" stroke-miterlimit="10" x1="123.7" y1="178.4" x2="123.7" y2="160"/>
	
		<line fill="none" stroke="#AFA192" stroke-width="1.1339" stroke-linecap="round" stroke-linejoin="round" stroke-miterlimit="10" x1="147.6" y1="178.4" x2="147.6" y2="170.4"/>
	
		<path fill="none" stroke="#AFA192" stroke-width="1.1339" stroke-linecap="round" stroke-linejoin="round" stroke-miterlimit="10" d="
		M130.5,178.4c-2.2,0-3.9-1.8-3.9-3.9"/>
	
		<path fill="none" stroke="#AFA192" stroke-width="1.1339" stroke-linecap="round" stroke-linejoin="round" stroke-miterlimit="10" d="
		M134,176.2c-0.6,1.3-2,2.2-3.5,2.2"/>
	
		<path fill="none" stroke="#AFA192" stroke-width="1.1339" stroke-linecap="round" stroke-linejoin="round" stroke-miterlimit="10" d="
		M130.5,170.5c-2.2,0-3.9,1.8-3.9,3.9h7.9C134.4,172.3,132.7,170.5,130.5,170.5"/>
	
		<path fill="none" stroke="#AFA192" stroke-width="1.1339" stroke-linecap="round" stroke-linejoin="round" stroke-miterlimit="10" d="
		M144.1,176.5c-0.1,1.9-1.8,2.6-7.1,1.9"/>
	
		<path fill="none" stroke="#AFA192" stroke-width="1.1339" stroke-linecap="round" stroke-linejoin="round" stroke-miterlimit="10" d="
		M140.6,174.6c2,0,3.6,0.8,3.6,1.9"/>
	
		<path fill="none" stroke="#AFA192" stroke-width="1.1339" stroke-linecap="round" stroke-linejoin="round" stroke-miterlimit="10" d="
		M140.6,174.6c-2,0-3.6-0.8-3.6-1.9"/>
	
		<path fill="none" stroke="#AFA192" stroke-width="1.1339" stroke-linecap="round" stroke-linejoin="round" stroke-miterlimit="10" d="
		M137,172.7c0-1.7,2.4-3,7.1-1.9"/>
	
		<path fill="none" stroke="#AFA192" stroke-width="1.1339" stroke-linecap="round" stroke-linejoin="round" stroke-miterlimit="10" d="
		M154.5,170.4c-2.2,0-3.9,1.8-3.9,3.9"/>
	
		<path fill="none" stroke="#AFA192" stroke-width="1.1339" stroke-linecap="round" stroke-linejoin="round" stroke-miterlimit="10" d="
		M158.4,174.3c0-2.2-1.8-3.9-3.9-3.9"/>
	
		<path fill="none" stroke="#AFA192" stroke-width="1.1339" stroke-linecap="round" stroke-linejoin="round" stroke-miterlimit="10" d="
		M154.5,178.3c2.2,0,3.9-1.8,3.9-3.9"/>
	
		<path fill="none" stroke="#AFA192" stroke-width="1.1339" stroke-linecap="round" stroke-linejoin="round" stroke-miterlimit="10" d="
		M150.5,174.3c0,2.2,1.8,3.9,3.9,3.9"/>
	
		<line fill="none" stroke="#AFA192" stroke-width="1.1339" stroke-linecap="round" stroke-linejoin="round" stroke-miterlimit="10" x1="158.4" y1="170.4" x2="158.4" y2="184.8"/>
	
		<line fill="none" stroke="#AFA192" stroke-width="1.1339" stroke-linecap="round" stroke-linejoin="round" stroke-miterlimit="10" x1="169.4" y1="174.6" x2="169.4" y2="178.4"/>
	
		<path fill="none" stroke="#AFA192" stroke-width="1.1339" stroke-linecap="round" stroke-linejoin="round" stroke-miterlimit="10" d="
		M165.5,170.5c2.2,0,3.9,1.8,3.9,3.9"/>
	
		<path fill="none" stroke="#AFA192" stroke-width="1.1339" stroke-linecap="round" stroke-linejoin="round" stroke-miterlimit="10" d="
		M161.6,174.5c0-2.2,1.8-3.9,3.9-3.9"/>
	
		<line fill="none" stroke="#AFA192" stroke-width="1.1339" stroke-linecap="round" stroke-linejoin="round" stroke-miterlimit="10" x1="161.6" y1="178.4" x2="161.6" y2="170.5"/>
</g>
<g id="bahay">
	<g id="XMLID_22_">
		<g>
			<path fill="#AFA192" d="M172.9,135.6V149h-13.3C166.9,149,172.9,143,172.9,135.6z"/>
			<path fill="#AFA192" d="M142.6,135.6V149h-13.3c0.7,0,1.5-0.1,2.3-0.2c5.5-0.9,10-5.4,10.9-10.9
				C142.5,137.1,142.6,136.4,142.6,135.6z"/>
			<path fill="#A0C9CA" d="M84.9,122.3h13.3c-7.4,0-13.3,6-13.3,13.3V122.3z"/>
			<path fill="#AFA192" d="M81,135.6V149H67.6c0.7,0,1.5-0.1,2.3-0.2c5.5-0.9,10-5.4,10.9-10.9C80.9,137.1,81,136.4,81,135.6z"/>
			<path fill="#AFA192" d="M37,149H23.7v-13.3C23.7,143,29.6,149,37,149z"/>
		</g>
		<g>
			
				<path fill="none" stroke="#AFA192" stroke-width="2.2677" stroke-linecap="round" stroke-linejoin="round" stroke-miterlimit="10" d="
				M37,149c2.4,0,4.9-0.6,7.3-2c1.7-0.9,3.1-2.3,4-4c7.1-12.8-5.9-25.8-18.7-18.7c-1.7,0.9-3,2.3-4,4c-1.4,2.5-2,5-2,7.3
				C23.7,143,29.6,149,37,149z"/>
			
				<path fill="none" stroke="#A0C9CA" stroke-width="2.2677" stroke-linecap="round" stroke-linejoin="round" stroke-miterlimit="10" d="
				M84.9,135.6c0-7.4,6-13.3,13.3-13.3s13.3,6,13.3,13.3V149"/>
			
				<path fill="none" stroke="#AFA192" stroke-width="2.2677" stroke-linecap="round" stroke-linejoin="round" stroke-miterlimit="10" d="
				M67.6,149c0.7,0,1.5-0.1,2.3-0.2c5.5-0.9,10-5.4,10.9-10.9c0.1-0.8,0.2-1.5,0.2-2.3c0-8.1-7.2-14.5-15.6-13.2
				c-5.5,0.9-10,5.4-10.9,10.9C53.1,141.7,59.5,149,67.6,149"/>
			
				<polyline fill="none" stroke="#AFA192" stroke-width="2.2677" stroke-linecap="round" stroke-linejoin="round" stroke-miterlimit="10" points="
				23.7,149 23.7,135.6 23.7,86.5 			"/>
			
				<line fill="none" stroke="#AFA192" stroke-width="2.2677" stroke-linecap="round" stroke-linejoin="round" stroke-miterlimit="10" x1="81" y1="149" x2="81" y2="135.6"/>
			
				<polyline fill="none" stroke="#A0C9CA" stroke-width="2.2677" stroke-linecap="round" stroke-linejoin="round" stroke-miterlimit="10" points="
				84.9,149 84.9,135.6 84.9,122.3 84.9,86.5 			"/>
			
				<path fill="none" stroke="#AFA192" stroke-width="2.2677" stroke-linecap="round" stroke-linejoin="round" stroke-miterlimit="10" d="
				M172.9,135.6c0,7.4-6,13.3-13.3,13.3s-13.3-6-13.3-13.3v-13.3"/>
			
				<polyline fill="none" stroke="#AFA192" stroke-width="2.2677" stroke-linecap="round" stroke-linejoin="round" stroke-miterlimit="10" points="
				172.9,122.3 172.9,135.6 172.9,149 172.9,184.8 			"/>
			
				<line fill="none" stroke="#AFA192" stroke-width="2.2677" stroke-linecap="round" stroke-linejoin="round" stroke-miterlimit="10" x1="23.7" y1="149" x2="37" y2="149"/>
			
				<polyline fill="none" stroke="#AFA192" stroke-width="2.2677" stroke-linecap="round" stroke-linejoin="round" stroke-miterlimit="10" points="
				81,149 67.6,149 67.6,149 			"/>
			
				<path fill="none" stroke="#AFA192" stroke-width="2.2677" stroke-linecap="round" stroke-linejoin="round" stroke-miterlimit="10" d="
				M129.2,149c0.7,0,1.5-0.1,2.3-0.2c5.5-0.9,10-5.4,10.9-10.9c0.1-0.8,0.2-1.5,0.2-2.3c0-8.1-7.2-14.5-15.6-13.2
				c-5.5,0.9-10,5.4-10.9,10.9C114.7,141.7,121.1,149,129.2,149z"/>
			
				<line fill="none" stroke="#AFA192" stroke-width="2.2677" stroke-linecap="round" stroke-linejoin="round" stroke-miterlimit="10" x1="142.6" y1="149" x2="142.6" y2="135.6"/>
			
				<line fill="none" stroke="#AFA192" stroke-width="2.2677" stroke-linecap="round" stroke-linejoin="round" stroke-miterlimit="10" x1="142.6" y1="149" x2="129.2" y2="149"/>
			
				<line fill="none" stroke="#AFA192" stroke-width="2.2677" stroke-linecap="round" stroke-linejoin="round" stroke-miterlimit="10" x1="159.5" y1="149" x2="172.9" y2="149"/>
			
				<line fill="none" stroke="#A0C9CA" stroke-width="2.2677" stroke-linecap="round" stroke-linejoin="round" stroke-miterlimit="10" x1="98.3" y1="122.3" x2="84.9" y2="122.3"/>
		</g>
	</g>
</g>
<g id="Arco">
	
		<path fill="none" stroke="#AFA192" stroke-width="2.2677" stroke-linecap="round" stroke-linejoin="round" stroke-miterlimit="10" d="
		M184.2,184.8V98.3c0-47.8-38.7-86.5-86.5-86.5S11.2,50.5,11.2,98.3v86.5h161.7"/>
	
		<rect x="102.1" y="137.9" fill="#A0C9CA" stroke="#A0C9CA" stroke-width="2.2677" stroke-miterlimit="10" width="4.1" height="11"/>
	<rect x="91.9" y="129.9" fill="#A0C9CA" stroke="#A0C9CA" stroke-width="2.2677" stroke-miterlimit="10" width="3.1" height="5"/>
</g>
</svg>
